<?xml version="1.0" encoding="utf-8"?>
<!-- Generator: Adobe Illustrator 23.0.1, SVG Export Plug-In . SVG Version: 6.00 Build 0)  -->
<svg version="1.1" id="Layer_1" xmlns="http://www.w3.org/2000/svg" xmlns:xlink="http://www.w3.org/1999/xlink" x="0px" y="0px"
	 viewBox="0 0 612 274" style="enable-background:new 0 0 612 274;" xml:space="preserve">
<style type="text/css">
	.st0{fill:#FFFFFF;stroke:#FFFFFF;stroke-width:11.8452;stroke-linecap:round;stroke-linejoin:bevel;}
	.st1{fill:#294179;}
	.st2{fill:#B38808;}
	.st3{fill:#FFFFFF;stroke:#FFFFFF;stroke-width:11.8452;stroke-linecap:round;stroke-linejoin:round;}
	.st4{fill:#FFFFFF;stroke:#FFFFFF;stroke-width:3.9484;stroke-linecap:round;stroke-linejoin:round;}
</style>
<g>
	<g>
		<g>
			<path class="st0" d="M410.18,99.57c-12.95,5.04-48.94,12.95-53.98,12.24c9.71,18.35,35.99,20.98,35.99,20.98h6.47v34.13
				c9.86-10.4,18.2-19.2,19.08-20.12c0-3.06,0-27.8,0-27.8h8.64v31.24l-27.72,29.24v29.56c14.85-15.67,43.67-46.08,45.34-47.85
				c0-3.17,0-42.19,0-42.19h8.65v45.64l-53.99,56.96v17.61l69.46-73.42v-28.43c19.08-6.12,25.54-24.11,25.54-24.11
				C475.67,79.43,423.13,94.53,410.18,99.57z"/>
		</g>
		<path class="st0" d="M500.62,119c0,0,4.16-20.79,30.72-18.7c24.46,1.92,20.15,19.19,37.9,19.19v1.93
			C569.24,121.41,541.65,138.44,500.62,119z"/>
		<path class="st0" d="M582.92,123.8c0-0.33-0.05-0.63-0.05-0.96l-0.23,0.14c-0.11-4.15-0.5-8.22-1.16-12.21l0.39,0.02
			c-6.31-42.98-43.23-75.99-87.97-75.99c-36.95,0-68.62,22.51-82.09,54.58c15.55-5.05,64.52-17.7,86.58,14.61
			c6.02-7.52,16.61-14.13,33.6-12.8c0.82,0.07,1.61,0.16,2.38,0.26c-1.47,14.57-7.05,28.97-20.89,38.42
			c1.41,1.14,2.79,2.43,4.09,3.88c-6.48-1.59-13.39-3.97-20.67-7.42l-0.79-0.39c-3.95,5.57-10.18,12.2-19.38,16.63
			c0,7.27,0,26.16,0,26.16l-29.24,30.92c13.52,8.29,29.37,13.15,46.39,13.15c4.37,0,8.65-0.33,12.84-0.93l-0.05,1.46
			c38.99-5.73,69.79-36.65,75.15-75.75C582.55,133.1,582.92,128.49,582.92,123.8z"/>
		<polygon class="st0" points="581.36,220.4 432.27,220.4 419.74,232.47 581.36,232.47 		"/>
		<g>
			<g>
				<path class="st1" d="M410.18,99.57c-12.95,5.04-48.94,12.95-53.98,12.24c9.71,18.35,35.99,20.98,35.99,20.98h6.47v34.13
					c9.86-10.4,18.2-19.2,19.08-20.12c0-3.06,0-27.8,0-27.8h8.64v31.24l-27.72,29.24v29.56c14.85-15.67,43.67-46.08,45.34-47.85
					c0-3.17,0-42.19,0-42.19h8.65v45.64l-53.99,56.96v17.61l69.46-73.42v-28.43c19.08-6.12,25.54-24.11,25.54-24.11
					C475.67,79.43,423.13,94.53,410.18,99.57z"/>
			</g>
			<path class="st1" d="M500.62,119c0,0,4.16-20.79,30.72-18.7c24.46,1.92,20.15,19.19,37.9,19.19v1.93
				C569.24,121.41,541.65,138.44,500.62,119z"/>
			<g>
				<path class="st2" d="M498.4,103.99c6.02-7.52,16.61-14.13,33.6-12.8c16.39,1.29,23.07,8.61,27.95,13.94
					c3.47,3.8,4.76,5.23,9.29,5.23l12.63,0.42c-6.31-42.98-43.23-75.99-87.97-75.99c-36.95,0-68.62,22.51-82.09,54.58
					C427.37,84.33,476.34,71.68,498.4,103.99z"/>
				<path class="st2" d="M496.92,126.33l-0.79-0.39c-3.95,5.57-10.18,12.2-19.38,16.63c0,7.27,0,26.16,0,26.16l-29.24,30.92
					c13.52,8.29,29.37,13.15,46.39,13.15c49.17,0,89.01-39.85,89.01-89c0-0.33-0.05-0.63-0.05-0.96l-9.09,5.43
					C572.48,129.07,541.68,147.52,496.92,126.33z"/>
			</g>
			<polygon class="st2" points="581.36,220.4 432.27,220.4 419.74,232.47 581.36,232.47 			"/>
		</g>
		<g>
			<path class="st3" d="M153.44,189.42c-5.36-21.39-8.02-43.6-8.02-65.99c0-22.61,3.51-45.01,6.51-67.42l-42.79,4.45
				c-4.84,11.29-10.19,22.19-16.37,32.49c-7.53-9.89-14.21-20.79-20.56-31.69l0.67-5.25l-43.79,4.64
				c4.68,21.6,8.85,43.59,8.85,65.99c0,22.81-1.33,45.62-6.02,67.61l42.46-4.84c-5.36-21.39-8.02-43.6-8.02-65.99
				c0-4.45,0.17-9.09,0.5-13.72c10.69,17.95,19.72,37.33,26.9,57.51c5.69-19.57,13.04-38.54,22.41-56.11
				c0.49,5.26,0.66,10.3,0.66,15.54c0,22.81-1.33,45.62-6.01,67.61L153.44,189.42z"/>
			<path class="st3" d="M260.08,57.62c-16.88,2.22-33.59,4.04-50.65,4.04c-13.03,0-26.24-0.21-38.95-4.04l-7.02,36.12
				c10.2-1.81,20.23-4.03,30.42-5.04c2.01,12.51,3,25.22,3,38.15c0,22.61-1.33,45.41-6.02,67.41l42.62-4.84
				c-5.35-21.39-8.02-43.6-8.02-65.79c0-11.71,0.84-23.21,2.17-34.71c8.53,1.01,16.89,2.22,25.25,4.24L260.08,57.62z"/>
			<path class="st3" d="M375.94,174.88c-22.4-34.51-42.29-82.75-53.65-124.52l-38.61,17.77c3.34,4.64,6.52,9.28,9.69,14.33
				c-9.54,35.12-25.4,71.24-45.47,99.5l40.46,15.53c1.5-10.69,4.34-20.78,7.35-31.07c5.68-1.21,11.53-2.02,17.21-2.02
				c5.86,0,11.7,0.6,17.39,1.61c3.84,10.7,7.18,21.6,9.35,33.1L375.94,174.88z M312.59,144.01c-3.18,0-6.52,0-9.52-0.6
				c3.34-7.88,6.01-16.35,9.69-23.82c3.34,7.68,6.02,15.75,9.19,23.61C318.94,144.01,315.6,144.01,312.59,144.01z"/>
		</g>
		<g>
			<path class="st1" d="M134.21,70.94l-0.33,109.6h-5.02l0.17-99.09c-16.38,12.72-27.41,28.26-34.6,50.25
				c-10.19-20.19-22.4-36.93-38.78-50.25l-0.17,99.09h-5.01l0.17-109.79c17.04,11.71,31.92,28.05,42.79,47.83
				C101.95,97.59,117.5,82.04,134.21,70.94z M153.44,189.42c-5.36-21.39-8.02-43.6-8.02-65.99c0-22.61,3.51-45.01,6.51-67.42
				l-42.79,4.45c-4.84,11.29-10.19,22.19-16.37,32.49c-7.53-9.89-14.21-20.79-20.56-31.69l0.67-5.25l-43.79,4.64
				c4.68,21.6,8.85,43.59,8.85,65.99c0,22.81-1.33,45.62-6.02,67.61l42.46-4.84c-5.36-21.39-8.02-43.6-8.02-65.99
				c0-4.45,0.17-9.09,0.5-13.72c10.69,17.95,19.72,37.33,26.9,57.51c5.69-19.57,13.04-38.54,22.41-56.11
				c0.49,5.26,0.66,10.3,0.66,15.54c0,22.81-1.33,45.62-6.01,67.61L153.44,189.42z"/>
			<path class="st1" d="M247.88,71.75v6.06l-34.6-0.2l-0.17,102.93h-5.01l0.17-102.93l-32.6-0.21v-6.06L247.88,71.75z M260.08,57.62
				c-16.88,2.22-33.59,4.04-50.65,4.04c-13.03,0-26.24-0.21-38.95-4.04l-7.02,36.12c10.2-1.81,20.23-4.03,30.42-5.04
				c2.01,12.51,3,25.22,3,38.15c0,22.61-1.33,45.41-6.02,67.41l42.62-4.84c-5.35-21.39-8.02-43.6-8.02-65.79
				c0-11.71,0.84-23.21,2.17-34.71c8.53,1.01,16.89,2.22,25.25,4.24L260.08,57.62z"/>
			<path class="st1" d="M351.37,174.68l-9.03-19.79c-9.85,1.22-19.88,2.63-29.74,2.63c-8.69,0-17.56-1.21-26.24-2.02
				c-3.35,7.68-6.86,15.33-10.7,22.81l-4.18-3.23c16.37-31.89,29.26-66.81,43.13-100.31c5.18,19.38,14.03,36.73,21.9,54.48
				c6.35,14.14,12.71,28.26,19.22,42.4L351.37,174.68z M375.94,174.88c-22.4-34.51-42.29-82.75-53.65-124.52l-38.61,17.77
				c3.34,4.64,6.52,9.28,9.69,14.33c-9.54,35.12-25.4,71.24-45.47,99.5l40.46,15.53c1.5-10.69,4.34-20.78,7.35-31.07
				c5.68-1.21,11.53-2.02,17.21-2.02c5.86,0,11.7,0.6,17.39,1.61c3.84,10.7,7.18,21.6,9.35,33.1L375.94,174.88z M312.59,151.47
				c9.02,0,18.21-1.4,27.06-2.41c-8.85-19.38-17.87-38.96-25.73-59.14c-8.36,19.98-16.38,39.96-25.08,59.74
				C296.71,150.46,304.73,151.47,312.59,151.47z M312.59,144.01c-3.18,0-6.52,0-9.52-0.6c3.34-7.88,6.01-16.35,9.69-23.82
				c3.34,7.68,6.02,15.75,9.19,23.61C318.94,144.01,315.6,144.01,312.59,144.01z"/>
		</g>
		<g>
			<path class="st4" d="M44.58,238.26v-12.39h-7.17v-2.52h19.21v2.52h-7.16v12.39H44.58z"/>
			<path class="st4" d="M59.78,238.26v-14.91h10.27c2.58,0,4.46,0.13,5.63,0.4c1.17,0.27,2.11,0.74,2.81,1.43
				c0.7,0.68,1.06,1.47,1.06,2.35c0,1.12-0.53,2.04-1.6,2.77c-1.07,0.73-2.66,1.19-4.78,1.38c1.06,0.38,1.93,0.8,2.61,1.25
				s1.61,1.26,2.78,2.42l2.95,2.91h-5.84l-3.53-3.25c-1.25-1.16-2.11-1.89-2.57-2.19s-0.95-0.51-1.47-0.62
				c-0.52-0.11-1.34-0.17-2.46-0.17h-0.99v6.23H59.78z M64.66,229.65h3.61c2.34,0,3.8-0.06,4.39-0.18s1.04-0.33,1.37-0.63
				c0.33-0.3,0.49-0.67,0.49-1.12c0-0.5-0.22-0.91-0.65-1.22s-1.05-0.5-1.84-0.58c-0.4-0.03-1.58-0.05-3.56-0.05h-3.81V229.65z"/>
			<path class="st4" d="M105.95,238.26h-5.31l-2.11-3.39h-9.66l-1.99,3.39H81.7l9.41-14.91h5.16L105.95,238.26z M96.96,232.36
				l-3.33-5.54l-3.26,5.54H96.96z"/>
			<path class="st4" d="M112.2,238.26l-8.64-14.91h5.29l6.12,11.04l5.92-11.04h5.18l-8.66,14.91H112.2z"/>
			<path class="st4" d="M128.55,238.26v-14.91h17.92v2.52h-13.04v3.31h12.13v2.51h-12.13v4.06h13.5v2.51H128.55z"/>
			<path class="st4" d="M151.21,238.26v-14.79h4.88v12.28h12.13v2.51H151.21z"/>
			<path class="st4" d="M179.24,233.4l4.75-0.29c0.29,0.98,0.87,1.71,1.74,2.17c0.87,0.46,2.05,0.69,3.54,0.69
				c1.57,0,2.76-0.21,3.55-0.62s1.2-0.89,1.2-1.44c0-0.35-0.17-0.65-0.5-0.9c-0.34-0.25-0.92-0.46-1.76-0.65
				c-0.57-0.12-1.87-0.34-3.91-0.65c-2.62-0.4-4.45-0.89-5.51-1.48c-1.48-0.82-2.23-1.82-2.23-3c0-0.76,0.35-1.47,1.05-2.13
				c0.7-0.66,1.7-1.17,3.02-1.51c1.31-0.35,2.9-0.52,4.76-0.52c3.03,0,5.32,0.41,6.85,1.23c1.53,0.82,2.34,1.92,2.42,3.29
				l-4.88,0.13c-0.21-0.77-0.66-1.32-1.34-1.65s-1.72-0.5-3.09-0.5c-1.42,0-2.53,0.18-3.33,0.54c-0.52,0.23-0.77,0.54-0.77,0.93
				c0,0.35,0.24,0.65,0.73,0.91c0.62,0.32,2.11,0.65,4.48,1c2.37,0.35,4.13,0.7,5.27,1.07c1.14,0.37,2.03,0.88,2.67,1.52
				s0.96,1.43,0.96,2.38c0,0.85-0.38,1.65-1.15,2.4s-1.86,1.3-3.26,1.66c-1.41,0.36-3.16,0.54-5.26,0.54c-3.06,0-5.4-0.44-7.04-1.31
				C180.53,236.34,179.55,235.07,179.24,233.4z"/>
			<path class="st4" d="M202,230.89c0-1.52,0.37-2.79,1.1-3.83c0.55-0.76,1.3-1.44,2.25-2.04c0.95-0.6,1.99-1.05,3.12-1.34
				c1.51-0.39,3.24-0.59,5.21-0.59c3.56,0,6.41,0.68,8.55,2.04s3.21,3.26,3.21,5.69c0,2.41-1.06,4.29-3.18,5.65
				c-2.12,1.36-4.96,2.04-8.51,2.04c-3.59,0-6.45-0.68-8.57-2.03C203.06,235.13,202,233.26,202,230.89z M207.03,230.79
				c0,1.69,0.63,2.97,1.9,3.84c1.26,0.87,2.87,1.31,4.81,1.31c1.95,0,3.54-0.43,4.79-1.3c1.25-0.86,1.87-2.16,1.87-3.89
				c0-1.71-0.61-2.98-1.82-3.83c-1.21-0.84-2.83-1.26-4.84-1.26c-2.01,0-3.63,0.43-4.86,1.28
				C207.65,227.79,207.03,229.07,207.03,230.79z"/>
			<path class="st4" d="M229.39,238.26v-14.79h4.88v12.28h12.13v2.51H229.39z"/>
			<path class="st4" d="M249.85,223.34h4.88v8.08c0,1.28,0.06,2.11,0.18,2.49c0.21,0.61,0.71,1.1,1.49,1.47
				c0.79,0.37,1.86,0.55,3.22,0.55c1.38,0,2.43-0.17,3.13-0.52c0.7-0.35,1.13-0.78,1.27-1.29c0.14-0.51,0.21-1.35,0.21-2.53v-8.25
				h4.88v7.83c0,1.79-0.13,3.06-0.4,3.79s-0.75,1.36-1.46,1.87s-1.66,0.91-2.84,1.22s-2.74,0.45-4.65,0.45
				c-2.31,0-4.06-0.16-5.25-0.49c-1.19-0.33-2.13-0.76-2.83-1.28c-0.69-0.53-1.15-1.08-1.37-1.65c-0.32-0.85-0.48-2.12-0.48-3.79
				V223.34z"/>
			<path class="st4" d="M279.71,238.26v-12.39h-7.17v-2.52h19.21v2.52h-7.16v12.39H279.71z"/>
			<path class="st4" d="M294.75,238.26v-14.91h4.88v14.91H294.75z"/>
			<path class="st4" d="M303.29,230.89c0-1.52,0.37-2.79,1.1-3.83c0.55-0.76,1.3-1.44,2.25-2.04c0.95-0.6,1.99-1.05,3.12-1.34
				c1.51-0.39,3.24-0.59,5.21-0.59c3.56,0,6.41,0.68,8.55,2.04c2.14,1.36,3.21,3.26,3.21,5.69c0,2.41-1.06,4.29-3.18,5.65
				c-2.12,1.36-4.96,2.04-8.51,2.04c-3.59,0-6.45-0.68-8.57-2.03C304.35,235.13,303.29,233.26,303.29,230.89z M308.32,230.79
				c0,1.69,0.63,2.97,1.9,3.84c1.26,0.87,2.87,1.31,4.81,1.31c1.95,0,3.54-0.43,4.79-1.3c1.25-0.86,1.87-2.16,1.87-3.89
				c0-1.71-0.61-2.98-1.82-3.83c-1.21-0.84-2.83-1.26-4.84-1.26c-2.01,0-3.63,0.43-4.86,1.28
				C308.93,227.79,308.32,229.07,308.32,230.79z"/>
			<path class="st4" d="M330.59,238.26v-14.91h4.75l9.89,9.96v-9.96h4.53v14.91h-4.9l-9.74-9.73v9.73H330.59z"/>
			<path class="st4" d="M353.69,233.4l4.75-0.29c0.29,0.98,0.87,1.71,1.74,2.17s2.05,0.69,3.54,0.69c1.57,0,2.76-0.21,3.55-0.62
				c0.8-0.41,1.2-0.89,1.2-1.44c0-0.35-0.17-0.65-0.5-0.9c-0.34-0.25-0.92-0.46-1.76-0.65c-0.57-0.12-1.88-0.34-3.91-0.65
				c-2.62-0.4-4.45-0.89-5.51-1.48c-1.48-0.82-2.23-1.82-2.23-3c0-0.76,0.35-1.47,1.05-2.13c0.7-0.66,1.7-1.17,3.02-1.51
				c1.31-0.35,2.9-0.52,4.76-0.52c3.03,0,5.32,0.41,6.85,1.23c1.53,0.82,2.34,1.92,2.42,3.29l-4.88,0.13
				c-0.21-0.77-0.66-1.32-1.34-1.65c-0.69-0.34-1.72-0.5-3.09-0.5c-1.42,0-2.53,0.18-3.33,0.54c-0.52,0.23-0.78,0.54-0.78,0.93
				c0,0.35,0.24,0.65,0.73,0.91c0.62,0.32,2.11,0.65,4.48,1s4.13,0.7,5.27,1.07c1.14,0.37,2.03,0.88,2.67,1.52
				c0.64,0.64,0.96,1.43,0.96,2.38c0,0.85-0.38,1.65-1.15,2.4s-1.86,1.3-3.26,1.66c-1.41,0.36-3.16,0.54-5.26,0.54
				c-3.06,0-5.4-0.44-7.04-1.31C354.98,236.34,354.01,235.07,353.69,233.4z"/>
		</g>
		<g>
			<path class="st2" d="M44.58,238.26v-12.39h-7.17v-2.52h19.21v2.52h-7.16v12.39H44.58z"/>
			<path class="st2" d="M59.78,238.26v-14.91h10.27c2.58,0,4.46,0.13,5.63,0.4c1.17,0.27,2.11,0.74,2.81,1.43
				c0.7,0.68,1.06,1.47,1.06,2.35c0,1.12-0.53,2.04-1.6,2.77c-1.07,0.73-2.66,1.19-4.78,1.38c1.06,0.38,1.93,0.8,2.61,1.25
				s1.61,1.26,2.78,2.42l2.95,2.91h-5.84l-3.53-3.25c-1.25-1.16-2.11-1.89-2.57-2.19s-0.95-0.51-1.47-0.62
				c-0.52-0.11-1.34-0.17-2.46-0.17h-0.99v6.23H59.78z M64.66,229.65h3.61c2.34,0,3.8-0.06,4.39-0.18s1.04-0.33,1.37-0.63
				c0.33-0.3,0.49-0.67,0.49-1.12c0-0.5-0.22-0.91-0.65-1.22s-1.05-0.5-1.84-0.58c-0.4-0.03-1.58-0.05-3.56-0.05h-3.81V229.65z"/>
			<path class="st2" d="M105.95,238.26h-5.31l-2.11-3.39h-9.66l-1.99,3.39H81.7l9.41-14.91h5.16L105.95,238.26z M96.96,232.36
				l-3.33-5.54l-3.26,5.54H96.96z"/>
			<path class="st2" d="M112.2,238.26l-8.64-14.91h5.29l6.12,11.04l5.92-11.04h5.18l-8.66,14.91H112.2z"/>
			<path class="st2" d="M128.55,238.26v-14.91h17.92v2.52h-13.04v3.31h12.13v2.51h-12.13v4.06h13.5v2.51H128.55z"/>
			<path class="st2" d="M151.21,238.26v-14.79h4.88v12.28h12.13v2.51H151.21z"/>
			<path class="st2" d="M179.24,233.4l4.75-0.29c0.29,0.98,0.87,1.71,1.74,2.17c0.87,0.46,2.05,0.69,3.54,0.69
				c1.57,0,2.76-0.21,3.55-0.62s1.2-0.89,1.2-1.44c0-0.35-0.17-0.65-0.5-0.9c-0.34-0.25-0.92-0.46-1.76-0.65
				c-0.57-0.12-1.87-0.34-3.91-0.65c-2.62-0.4-4.45-0.89-5.51-1.48c-1.48-0.82-2.23-1.82-2.23-3c0-0.76,0.35-1.47,1.05-2.13
				c0.7-0.66,1.7-1.17,3.02-1.51c1.31-0.35,2.9-0.52,4.76-0.52c3.03,0,5.32,0.41,6.85,1.23c1.53,0.82,2.34,1.92,2.42,3.29
				l-4.88,0.13c-0.21-0.77-0.66-1.32-1.34-1.65s-1.72-0.5-3.09-0.5c-1.42,0-2.53,0.18-3.33,0.54c-0.52,0.23-0.77,0.54-0.77,0.93
				c0,0.35,0.24,0.65,0.73,0.91c0.62,0.32,2.11,0.65,4.48,1c2.37,0.35,4.13,0.7,5.27,1.07c1.14,0.37,2.03,0.88,2.67,1.52
				s0.96,1.43,0.96,2.38c0,0.85-0.38,1.65-1.15,2.4s-1.86,1.3-3.26,1.66c-1.41,0.36-3.16,0.54-5.26,0.54c-3.06,0-5.4-0.44-7.04-1.31
				C180.53,236.34,179.55,235.07,179.24,233.4z"/>
			<path class="st2" d="M202,230.89c0-1.52,0.37-2.79,1.1-3.83c0.55-0.76,1.3-1.44,2.25-2.04c0.95-0.6,1.99-1.05,3.12-1.34
				c1.51-0.39,3.24-0.59,5.21-0.59c3.56,0,6.41,0.68,8.55,2.04s3.21,3.26,3.21,5.69c0,2.41-1.06,4.29-3.18,5.65
				c-2.12,1.36-4.96,2.04-8.51,2.04c-3.59,0-6.45-0.68-8.57-2.03C203.06,235.13,202,233.26,202,230.89z M207.03,230.79
				c0,1.69,0.63,2.97,1.9,3.84c1.26,0.87,2.87,1.31,4.81,1.31c1.95,0,3.54-0.43,4.79-1.3c1.25-0.86,1.87-2.16,1.87-3.89
				c0-1.71-0.61-2.98-1.82-3.83c-1.21-0.84-2.83-1.26-4.84-1.26c-2.01,0-3.63,0.43-4.86,1.28
				C207.65,227.79,207.03,229.07,207.03,230.79z"/>
			<path class="st2" d="M229.39,238.26v-14.79h4.88v12.28h12.13v2.51H229.39z"/>
			<path class="st2" d="M249.85,223.34h4.88v8.08c0,1.28,0.06,2.11,0.18,2.49c0.21,0.61,0.71,1.1,1.49,1.47
				c0.79,0.37,1.86,0.55,3.22,0.55c1.38,0,2.43-0.17,3.13-0.52c0.7-0.35,1.13-0.78,1.27-1.29c0.14-0.51,0.21-1.35,0.21-2.53v-8.25
				h4.88v7.83c0,1.79-0.13,3.06-0.4,3.79s-0.75,1.36-1.46,1.87s-1.66,0.91-2.84,1.22s-2.74,0.45-4.65,0.45
				c-2.31,0-4.06-0.16-5.25-0.49c-1.19-0.33-2.13-0.76-2.83-1.28c-0.69-0.53-1.15-1.08-1.37-1.65c-0.32-0.85-0.48-2.12-0.48-3.79
				V223.34z"/>
			<path class="st2" d="M279.71,238.26v-12.39h-7.17v-2.52h19.21v2.52h-7.16v12.39H279.71z"/>
			<path class="st2" d="M294.75,238.26v-14.91h4.88v14.91H294.75z"/>
			<path class="st2" d="M303.29,230.89c0-1.52,0.37-2.79,1.1-3.83c0.55-0.76,1.3-1.44,2.25-2.04c0.95-0.6,1.99-1.05,3.12-1.34
				c1.51-0.39,3.24-0.59,5.21-0.59c3.56,0,6.41,0.68,8.55,2.04c2.14,1.36,3.21,3.26,3.21,5.69c0,2.41-1.06,4.29-3.18,5.65
				c-2.12,1.36-4.96,2.04-8.51,2.04c-3.59,0-6.45-0.68-8.57-2.03C304.35,235.13,303.29,233.26,303.29,230.89z M308.32,230.79
				c0,1.69,0.63,2.97,1.9,3.84c1.26,0.87,2.87,1.31,4.81,1.31c1.95,0,3.54-0.43,4.79-1.3c1.25-0.86,1.87-2.16,1.87-3.89
				c0-1.71-0.61-2.98-1.82-3.83c-1.21-0.84-2.83-1.26-4.84-1.26c-2.01,0-3.63,0.43-4.86,1.28
				C308.93,227.79,308.32,229.07,308.32,230.79z"/>
			<path class="st2" d="M330.59,238.26v-14.91h4.75l9.89,9.96v-9.96h4.53v14.91h-4.9l-9.74-9.73v9.73H330.59z"/>
			<path class="st2" d="M353.69,233.4l4.75-0.29c0.29,0.98,0.87,1.71,1.74,2.17s2.05,0.69,3.54,0.69c1.57,0,2.76-0.21,3.55-0.62
				c0.8-0.41,1.2-0.89,1.2-1.44c0-0.35-0.17-0.65-0.5-0.9c-0.34-0.25-0.92-0.46-1.76-0.65c-0.57-0.12-1.88-0.34-3.91-0.65
				c-2.62-0.4-4.45-0.89-5.51-1.48c-1.48-0.82-2.23-1.82-2.23-3c0-0.76,0.35-1.47,1.05-2.13c0.7-0.66,1.7-1.17,3.02-1.51
				c1.31-0.35,2.9-0.52,4.76-0.52c3.03,0,5.32,0.41,6.85,1.23c1.53,0.82,2.34,1.92,2.42,3.29l-4.88,0.13
				c-0.21-0.77-0.66-1.32-1.34-1.65c-0.69-0.34-1.72-0.5-3.09-0.5c-1.42,0-2.53,0.18-3.33,0.54c-0.52,0.23-0.78,0.54-0.78,0.93
				c0,0.35,0.24,0.65,0.73,0.91c0.62,0.32,2.11,0.65,4.48,1s4.13,0.7,5.27,1.07c1.14,0.37,2.03,0.88,2.67,1.52
				c0.64,0.64,0.96,1.43,0.96,2.38c0,0.85-0.38,1.65-1.15,2.4s-1.86,1.3-3.26,1.66c-1.41,0.36-3.16,0.54-5.26,0.54
				c-3.06,0-5.4-0.44-7.04-1.31C354.98,236.34,354.01,235.07,353.69,233.4z"/>
		</g>
	</g>
</g>
</svg>
